<?xml version="1.0" encoding="UTF-8"?>
<svg version="1.1" viewBox="0 0 2048 502" width="1080" height="265" xmlns="http://www.w3.org/2000/svg">
<path transform="translate(0)" d="m0 0h2048v502h-2048z" fill="#FEFEFE"/>
<path transform="translate(708,92)" d="m0 0 15 1 11 4 6 4 8 9 4 10 2 12-1 18h-2l-2-9-5-9-6-7-12-6-13-2-14 3-12 5-15 8-11 8-10 9-14 14-11 14-10 14-9 16-9 19-7 21-3 18 1 12 4 12 7 8 9 4 11 1v-5l-9-3-5-7-2-7v-16l5-23 6-18 11-23 10-16 12-16 12-14 13-13 13-9 12-6 8-2h12l8 3 5 4 6 10 2 8v20l-3 20-7 24-10 25-8 16-8 15-10 15-10 13-11 13-20 20-13 10-14 8-16 6-10 2h-13l-11-3-8-4-9-8-5-9-4-12-1-5v-26l3-18 7-24 9-22 11-20 14-21 13-17 13-16 11-12 7-8 9-9 11-9 13-9 16-8 15-4z" fill="#FEFEFE"/>
<path transform="translate(232,84)" d="m0 0 8 1 1 4-11 23-15 31-15 33-14 30-22 48-5 10 30-1 15-4 9-5 7-6 6-10 5-12h5l1 5-6 15-8 12-10 10-14 9-12 5-18 4h-21l-16 36-5 15v5l2 1 19 2-1 5-1 1h-41l-32-1-9-1-1-4 2-2 16-1 8-3 6-9 23-45 1-3-6-2-20-3-11-1h-43l-17 3-8 1-3-6v-2l14-9 14-10 18-14 10-8 11-9 14-12 11-9 12-11 11-9 8-8 8-7 31-29 12-11 26-24 17-17z" fill="#B6935B"/>
<path transform="translate(438,124)" d="m0 0h6l4 4 1 2v11l-5 14-6 12-9 12-12 13-10 9-17 14-19 14-4 2-2 5-15 27-3 6 12-13 13-13 12-9 11-5 4-1h8l6 4 2 5-2 11-8 16-12 20-8 16-5 12-1 7 2 3 7-1 13-10 9-9 11-26 10-16 9-11 9-9 10-7 13-5 5-1h7l8 4 4 6 1 6-3 10-6 8-9 9-15 10-15 7-15 5h-3l-1 6v15l3 6 5 3h9l10-4 14-9 13-12 10-11 4-1 1 4-7 8-16 16-14 10-15 7-11 3h-7l-9-3-5-4-4-8-2-7-10 10-11 8-10 4h-7l-6-3-3-5v-10l4-12 10-21 13-23 6-13v-7l-3-1-8 4-12 11-14 14-7 9-11 16-9 16-11 20-4 3-5 1-10-2 3-10 10-20v-2l-9 11-13 13-13 9-9 3h-8l-6-3-4-4-1-9 3-13 11-24 12-22 13-23 5-10h-21l-1-3 3-4h23l13-23 9-16 7-10 6-3h10l3 1-2 6-14 24-12 21h25v5l-1 1-28 1-13 24-14 26-10 19-6 15-1 10 3 4 5-1 11-8 15-15 9-11 11-13 8-14 14-27 13-23 16-26 14-19 9-11 9-10 11-11 10-7z" fill="#B6935B"/>
<path transform="translate(706,84)" d="m0 0h12l16 3 14 7 8 7 7 12 3 11v18l-5 16-6 11-1 20-3 17-5 16-9 21-13 23-10 15-10 13-12 14-16 16-14 11-14 10-23 12-16 5-11 2h-16l-17-4-13-7-10-9-8-11-6-12-4-16-1-8v-18l3-20 7-25 11-25 10-17 10-14 8-10 22-24 20-18 16-12 19-12 21-10 20-6zm2 8-17 3-17 7-14 9-10 8-13 12-7 7-7 8-12 14-13 17-11 15-13 21-9 17-10 27-6 25-1 8v26l4 15 4 8 8 9 8 5 9 3 5 1h13l16-4 12-5 12-7 10-8 10-9 17-17 11-14 11-15 11-19 8-16 9-21 8-24 4-19 1-9v-20l-3-10-6-9-8-5-4-1h-12l-13 4-13 8-10 8-14 14-9 11-13 18-11 19-8 17-6 18-5 23v16l3 9 4 5 9 3v5l-11-1-9-4-7-8-4-12-1-12 3-18 7-21 12-25 10-16 14-18 11-12 13-13 14-10 21-11 13-4 9-1 11 2 12 6 7 8 5 11 1 6h2l1-18-2-12-4-10-9-10-12-6-12-2z" fill="#B6935B"/>
<path transform="translate(867,361)" d="m0 0h6l1 3-7 8-13 13-13 10-18 11-16 8-20 8-24 7-26 5-24 3-12 1h-49l-38-3-48-6-78-13-63-11-45-7-50-6-38-3-22-1h-43l-34 2-26 3-28 5-26 7-21 8-21 11-12 9-4 1-3-2 1-4 7-7 17-13 16-9 23-10 24-7 24-5 30-4 41-3h54l49 3 56 6 76 11 63 10 45 6 40 4 31 2h58l31-3 26-4 26-6 30-10 21-10 17-11z" fill="#B6935B"/>
<path transform="translate(922,221)" d="m0 0h13l8 4 5 8v12l-4 8-9 10-8 7-15 9-17 8-18 6-2 8v12l4 10 8 4h8l11-4 11-6 12-9 12-11 9-11 5-5 3 1-1 6-12 14-10 10-14 11-13 8-11 5-10 3h-15l-9-4-7-8-3-8-1-13-22 22-12 8-6 2h-8l-6-3-5-6-1-3v-8l4-14 12-26 10-19 7-16 1-8-2-2-7 1-9 6-12 11-13 14-7 9-11 15-9 15-13 24-5 8-2 1h-14l-1-4 9-19 23-46 13-28 7-16 5-2 8 1 3 2v7l-8 18-6 13 26-26 13-9 10-5 3-1h14l5 4 2 4v10l-5 12-9 17-10 17-9 20-3 11 1 6 1 1h6l11-7 7-7 7-6 7-8 5-7 5-11 9-16 9-12 11-12 14-10 11-5z" fill="#B6935B"/>
<path transform="translate(194,128)" d="m0 0 1 2-22 46-8 16-20 41-14 28-19-1-13-1-45-1 5-5 12-9 14-12 13-12 8-8 8-7 25-25 8-7 17-17 8-7 16-15z" fill="#FEFEFE"/>
<path transform="translate(1325,216)" d="m0 0h31l10 3 6 7 1 2v9l-7 8-3 2 2 5 11 15 4 5 4 2-1 2h-10l-6-3-7-8-8-13h-7v13l1 6 6 2v3h-26v-3l6-2v-49l-7-4z" fill="#B6935B"/>
<path transform="translate(1738,220)" d="m0 0h9l8 5 4 5 4 11v14l-4 10-5 6-4 2h-9l-8-4-6-8-3-10v-11l3-10 7-8z" fill="#FEFEFE"/>
<path transform="translate(1410,216)" d="m0 0h16l9 10 7 8 12 13 8 8v-32l-7-5v-2h20l-1 3-4 1-1 56-4 1-11-12-7-8-14-15-8-9v38l7 2-1 3h-20v-3l5-3 1-3v-42l-4-5-3-2z" fill="#B6935B"/>
<path transform="translate(1738,215)" d="m0 0h11l11 4 8 7 5 8 2 7v14l-4 9-7 8-5 3-8 2h-14l-10-3-10-9-5-10-1-11 2-9 6-10 8-6zm0 5-6 4-5 6-3 10v11l4 12 5 6 8 4h9l6-4 4-5 3-9v-14l-4-11-6-7-6-3z" fill="#B6935B"/>
<path transform="translate(1075,216)" d="m0 0h16l13 14 7 8 10 10 6 7v2h2l-1-32-2-4-6-3v-2l21 1-3 3-2 1-1 18-1 38-4-1-9-9-7-8-24-26v31l2 7 6 2-1 3h-21l1-3 4-2 1-2v-45l-4-4-3-2z" fill="#B6935B"/>
<path transform="translate(1803,216)" d="m0 0h16l14 15 7 8 7 7 7 8 2 2v-29l-2-6-5-2v-3l19 1v2l-5 4-1 54-5-1-9-11-15-16-7-7-7-8-1-1v29l1 9 7 2v3h-22v-3l5-2 1-2v-45l-4-4-3-2z" fill="#B6935B"/>
<path transform="translate(925,227)" d="m0 0 6 1 4 6-1 8-5 10-8 10-7 7-13 8-15 7-7 2 5-12 8-15 10-14 10-11 10-6z" fill="#FEFEFE"/>
<path transform="translate(1919,215)" d="m0 0 5 1 10 25 11 26 4 5 4 1v3h-26v-3l6-1-3-10-2-5h-19l-5 14 7 2v3h-21v-3l6-3 4-8 17-43z" fill="#B6935B"/>
<path transform="translate(1528,214)" d="m0 0 3 1 11 27 9 21 5 8 5 2v3h-26v-3l5-2-1-6-3-8-20-1-1 6-2 9 6 2-1 3h-20v-3l6-3 7-16 11-29 4-10z" fill="#B6935B"/>
<path transform="translate(437,132)" d="m0 0 5 1v7l-6 16-9 14-9 11-14 14-11 9-14 12-4 2 2-5 14-22 20-30 14-19 8-8z" fill="#FEFEFE"/>
<path transform="translate(1248,216)" d="m0 0h43l1 1v14h-3l-5-8h-17v19l13-1 3-1 2-3h2v16h-3l-2-4-2-1-13-1 1 19 3 3h15l6-5 3-4h2v7l-3 8-2 1h-21l-23-1v-2l6-2 1-9v-29l-1-11-6-4z" fill="#B6935B"/>
<path transform="translate(473,234)" d="m0 0h8l3 5-1 8-5 10-9 10-9 8-10 6-14 6-3-1 8-16 8-14 11-14 8-6z" fill="#FEFEFE"/>
<path transform="translate(1167,216)" d="m0 0h55l-1 14h-3l-3-6-1-1-15-1 1 45 2 4 6 2v3h-28v-3l6-2 1-2 1-47-14 1-5 7h-3z" fill="#B6935B"/>
<path transform="translate(1577,216)" d="m0 0h54l1 1-1 13h-3l-3-6-1-1-14-1 1 46 2 4 5 2-1 2h-27v-3l7-2 1-3 1-46-15 1-3 3-2 4-3-1z" fill="#B6935B"/>
<path transform="translate(1978,216)" d="m0 0h26l-1 3-5 2v45l2 3 9 1 8-2 4-4 3-5h2l-1 10-3 7h-44v-3l6-3 1-2v-43l-2-4-5-3z" fill="#B6935B"/>
<path transform="translate(1020,216)" d="m0 0h25v3l-6 1v39l1 12 6 3-1 2h-25v-3l5-2 1-3v-43l-2-5-4-1z" fill="#B6935B"/>
<path transform="translate(1658,216)" d="m0 0h26v3l-5 1-1 3v46l3 3 4 2-1 2h-25l-2-1v-2l8-4v-45l-4-4-3-2z" fill="#B6935B"/>
<path transform="translate(1346,221)" d="m0 0h7l5 3 3 3 1 8-3 7-8 4h-7l1-24z" fill="#FEFEFE"/>
<path transform="translate(1525,232)" d="m0 0h2l7 18v1h-16z" fill="#FEFEFE"/>
<path transform="translate(1918,232)" d="m0 0 3 4 5 13v2h-15l3-10z" fill="#FEFEFE"/>
</svg>
